<?xml version="1.0"?>
<svg width="256" height="256" xmlns="http://www.w3.org/2000/svg" xmlns:svg="http://www.w3.org/2000/svg" xmlns:xlink="http://www.w3.org/1999/xlink" preserveAspectRatio="xMinYMin meet">
 <g class="layer">
  <title>Layer 1</title>
  <g id="SVGRepo_bgCarrier" stroke-width="0"/>
  <g id="SVGRepo_tracerCarrier" stroke-linecap="round" stroke-linejoin="round"/>
  <use id="svg_8" transform="matrix(1.48301 0 0 1.48301 -178.7 -121.333)" x="78.21" xlink:href="#svg_7" y="40.2"/>
 </g>
 <defs>
  <symbol height="256px" id="svg_7" viewBox="0 0 24.00 24.00" width="256px" xmlns="http://www.w3.org/2000/svg">
   <g id="svg_6" stroke-width="0"/>
   <g id="svg_5" stroke-linecap="round" stroke-linejoin="round"/>
   <g id="svg_4">
    <path d="m12,7.9c-0.81,0 -1.6,0.24 -2.28,0.69c-0.67,0.45 -1.2,1.09 -1.51,1.84c-0.31,0.75 -0.39,1.57 -0.23,2.37c0.16,0.8 0.55,1.53 1.12,2.1c0.57,0.57 1.3,0.96 2.1,1.12c0.8,0.16 1.62,0.08 2.37,-0.23c0.75,-0.31 1.39,-0.84 1.84,-1.51c0.45,-0.68 0.69,-1.47 0.69,-2.28c0,-0.54 -0.1,-1.07 -0.31,-1.57c-0.2,-0.5 -0.51,-0.95 -0.89,-1.33c-0.38,-0.38 -0.83,-0.69 -1.33,-0.89c-0.5,-0.21 -1.03,-0.31 -1.57,-0.31zm0,6.77c-0.53,0 -1.04,-0.16 -1.48,-0.45c-0.44,-0.29 -0.78,-0.71 -0.99,-1.2c-0.2,-0.49 -0.25,-1.02 -0.15,-1.54c0.1,-0.52 0.36,-0.99 0.73,-1.37c0.38,-0.37 0.85,-0.63 1.37,-0.73c0.52,-0.1 1.05,-0.05 1.54,0.15c0.49,0.21 0.91,0.55 1.2,0.99c0.29,0.44 0.45,0.95 0.45,1.48c0,0.71 -0.28,1.39 -0.78,1.89c-0.5,0.5 -1.18,0.78 -1.89,0.78zm5.23,-6.94c0,0.2 -0.06,0.39 -0.17,0.56c-0.11,0.16 -0.26,0.29 -0.45,0.36c-0.18,0.08 -0.38,0.1 -0.58,0.06c-0.19,-0.04 -0.37,-0.13 -0.51,-0.27c-0.14,-0.14 -0.23,-0.32 -0.27,-0.51c-0.04,-0.2 -0.02,-0.4 0.06,-0.58c0.07,-0.19 0.2,-0.34 0.36,-0.45c0.17,-0.11 0.36,-0.17 0.56,-0.17c0.27,0 0.52,0.11 0.71,0.29c0.18,0.19 0.29,0.44 0.29,0.71zm2.71,1c0.03,-1.24 -0.43,-2.45 -1.29,-3.35c-0.9,-0.87 -2.1,-1.34 -3.35,-1.32c-1.3,-0.06 -5.3,-0.06 -6.6,0c-1.24,-0.03 -2.45,0.44 -3.35,1.29c-0.86,0.9 -1.32,2.11 -1.29,3.35c-0.06,1.3 -0.06,5.3 0,6.6c-0.03,1.24 0.43,2.45 1.29,3.35c0.9,0.85 2.11,1.32 3.35,1.29c1.32,0.08 5.28,0.08 6.6,0c1.24,0.03 2.45,-0.43 3.35,-1.29c0.86,-0.9 1.32,-2.11 1.29,-3.35c0.06,-1.3 0.06,-5.3 0,-6.6l0,0.03zm-1.7,8c-0.14,0.34 -0.34,0.66 -0.6,0.92c-0.26,0.26 -0.58,0.46 -0.92,0.6c-1.55,0.31 -3.14,0.42 -4.72,0.32c-1.58,0.1 -3.16,-0.01 -4.71,-0.32c-0.34,-0.14 -0.66,-0.34 -0.92,-0.6c-0.26,-0.26 -0.46,-0.58 -0.6,-0.92c-0.42,-1.06 -0.33,-3.56 -0.33,-4.72c0,-1.16 -0.09,-3.67 0.33,-4.72c0.13,-0.35 0.34,-0.66 0.6,-0.93c0.26,-0.26 0.57,-0.47 0.92,-0.6c1.55,-0.31 3.13,-0.42 4.71,-0.32c1.58,-0.1 3.17,0.01 4.72,0.32c0.34,0.14 0.66,0.34 0.92,0.6c0.26,0.26 0.46,0.58 0.6,0.92c0.42,1.06 0.32,3.56 0.32,4.72c0,1.16 0.1,3.67 -0.32,4.72l0,0.01z" fill="#3b4a65"/>
   </g>
  </symbol>
 </defs>
</svg>